<?xml version="1.0" standalone="no"?>
<!DOCTYPE svg PUBLIC "-//W3C//DTD SVG 20010904//EN"
 "http://www.w3.org/TR/2001/REC-SVG-20010904/DTD/svg10.dtd">
<svg version="1.0" xmlns="http://www.w3.org/2000/svg"
 width="82.000000pt" height="76.000000pt" viewBox="0 0 82.000000 76.000000"
 preserveAspectRatio="xMidYMid meet">
<metadata>
Created by potrace 1.16, written by Peter Selinger 2001-2019
</metadata>
<g transform="translate(0.000000,76.000000) scale(0.100000,-0.100000)"
fill="#000000" stroke="none">
<path d="M402 748 c-7 -7 -12 -34 -12 -60 l0 -48 -123 0 c-82 0 -127 -4 -135
-12 -16 -16 -16 -170 0 -186 8 -8 46 -12 105 -12 90 0 93 -1 93 -23 0 -13 5
-28 12 -35 17 -17 269 -17 286 0 7 7 12 31 12 55 l0 43 78 0 c47 0 83 5 90 12
17 17 17 249 0 266 -17 17 -389 17 -406 0z"/>
<path d="M162 248 c-16 -16 -16 -140 0 -156 16 -16 140 -16 156 0 16 16 16
140 0 156 -16 16 -140 16 -156 0z"/>
<path d="M12 88 c-15 -15 -15 -61 0 -76 15 -15 61 -15 76 0 15 15 15 61 0 76
-7 7 -24 12 -38 12 -14 0 -31 -5 -38 -12z"/>
</g>
</svg>
